<svg xmlns="http://www.w3.org/2000/svg" width="32" height="32"><path d="M10.041 0h12v2h-12V0zm16.316 32H5.643l-.293-.293c-1.511-1.511-2.346-3.536-2.351-5.704-.004-2.172.825-4.199 2.335-5.71l6.707-6.707V4h2v10.414l-7.293 7.293c-1.131 1.132-1.752 2.655-1.749 4.291A6.052 6.052 0 006.489 30H25.51c2.054-2.355 1.97-6.064-.258-8.293l-7.293-7.293V4h2v9.586l6.707 6.707c3.143 3.144 3.135 8.264-.016 11.414l-.293.293z"/><path d="M7.215 27.319A4.133 4.133 0 017 25.995a4.01 4.01 0 011.165-2.874l7.003-7 1.414 1.414-7.003 7A2.03 2.03 0 009 25.99c.001.244.037.477.109.69l-1.894.639z"/></svg>