<svg xmlns="http://www.w3.org/2000/svg" width="32" height="32"><path d="M16.32 30.733L2.233 17.657A9.61 9.61 0 010 11.5C0 6.262 4.262 2 9.5 2c2.442 0 4.756.918 6.5 2.55A9.492 9.492 0 0122.5 2c5.238 0 9.5 4.262 9.5 9.5a9.61 9.61 0 01-2.233 6.157l-.095.099-11 9.984-1.344-1.48 10.947-9.937A7.715 7.715 0 0030 11.5C30 7.364 26.636 4 22.5 4a7.474 7.474 0 00-5.735 2.645L16 7.551l-.765-.907A7.477 7.477 0 009.5 4C5.364 4 2 7.364 2 11.5c0 1.735.629 3.49 1.728 4.827l13.952 12.94-1.36 1.466z"/><path d="M15.208 24.247l-10.07-9.361A5.646 5.646 0 014 11.5C4 8.467 6.467 6 9.5 6v2C7.57 8 6 9.57 6 11.5c0 .742.249 1.507.684 2.114l9.885 9.167-1.361 1.466zm4.233-14.239l-1.752-.965a5.458 5.458 0 013.289-2.626 5.467 5.467 0 014.183.464l-.965 1.752a3.479 3.479 0 00-2.662-.295 3.475 3.475 0 00-2.093 1.67z"/></svg>