<svg xmlns="http://www.w3.org/2000/svg" width="32" height="32"><path d="M12.806 19.192c-3.507-3.51-3.507-9.22 0-12.729l1.414 1.414c-2.728 2.729-2.728 7.17 0 9.9l-1.414 1.415z"/><path d="M25.534 19.192l-1.414-1.414 3.829-3.828c2.729-2.731 2.729-7.172 0-9.9-2.729-2.728-7.17-2.729-9.899 0l-3.829 3.828-1.414-1.414 3.829-3.828c3.508-3.509 9.218-3.509 12.728 0 3.509 3.507 3.509 9.218 0 12.729l-3.83 3.827z"/><path d="M19.193 25.534l-1.414-1.414c2.729-2.729 2.729-7.169 0-9.9l1.414-1.414c3.509 3.51 3.509 9.221 0 12.728z"/><path d="M9 31.996a8.97 8.97 0 01-6.364-2.632c-3.509-3.509-3.509-9.219 0-12.729l3.829-3.83L7.88 14.22l-3.829 3.83c-2.729 2.729-2.729 7.171 0 9.9s7.17 2.729 9.899 0l3.829-3.83 1.414 1.414-3.829 3.83A8.969 8.969 0 019 31.996z"/></svg>