<svg xmlns="http://www.w3.org/2000/svg" width="32" height="32"><path d="M13 26C5.832 26 0 20.168 0 13S5.832 0 13 0s13 5.832 13 13-5.832 13-13 13zm0-24C6.935 2 2 6.935 2 13s4.935 11 11 11 11-4.935 11-11S19.065 2 13 2zm16.001 30a2.988 2.988 0 01-2.121-.877l-5.576-5.405 1.393-1.436 5.587 5.416c.4.401 1.036.4 1.425.011.187-.188.291-.44.291-.709s-.104-.519-.292-.707l-5.426-5.598 1.436-1.392 5.415 5.586c.555.555.867 1.309.867 2.111s-.312 1.556-.877 2.122a2.989 2.989 0 01-2.122.878z"/><path d="M7.348 18.654c-3.119-3.118-3.119-8.192 0-11.313l1.414 1.414a6.006 6.006 0 000 8.484l-1.414 1.415z"/></svg>