<svg xmlns="http://www.w3.org/2000/svg" width="32" height="32"><path d="M4 7a2.978 2.978 0 01-2.122-.879L.464 4.707 4.706.465 6.12 1.879c.568.566.88 1.32.88 2.123 0 .801-.313 1.555-.881 2.121A2.976 2.976 0 014 7zm-.708-2.293c.189.189.44.293.708.293a.992.992 0 00.706-.292c.19-.19.294-.44.294-.706a.992.992 0 00-.293-.708v-.001L3.292 4.707z"/><path d="M6.107 4.695l6.328 6.103-1.388 1.44-6.328-6.103 1.388-1.44zm15.877 15.651l5.464 5.464-1.414 1.414-5.464-5.464 1.414-1.414z"/><path d="M26.742 31.514a4.97 4.97 0 01-3.526-1.457l-6.084-6.084 1.414-1.414 6.084 6.084a3 3 0 004.236-.007 3.009 3.009 0 00-.006-4.249l-6.072-6.071 1.414-1.414 6.072 6.071c1.953 1.955 1.955 5.129.006 7.078a4.997 4.997 0 01-3.538 1.463zm-3.226-16.028a6.958 6.958 0 01-4.95-2.052 6.947 6.947 0 01-2.051-4.948c0-1.871.728-3.629 2.051-4.951l1.828-1.828 1.414 1.414-1.828 1.828a4.964 4.964 0 00-1.465 3.536c0 1.335.521 2.591 1.465 3.535s2.2 1.466 3.535 1.466 2.59-.521 3.535-1.466l1.828-1.828 1.414 1.414-1.828 1.828a6.943 6.943 0 01-4.948 2.052z"/><path d="M30.293 11.606l-2.121-2.121-.707.707a3.97 3.97 0 01-2.828 1.172h-.001c-1.068-.001-2.073-.417-2.828-1.172s-1.171-1.759-1.171-2.828a3.98 3.98 0 011.171-2.829l.708-.707-2.121-2.121L21.809.293l3.535 3.535-2.121 2.121c-.378.379-.586.881-.586 1.415s.208 1.036.586 1.413a1.98 1.98 0 001.414.587c.534 0 1.036-.208 1.414-.586l2.122-2.121 3.535 3.535-1.415 1.414zM4.031 25.969h2v2h-2v-2zm10.537-13.087l3.967 3.922-1.406 1.422-3.967-3.922 1.406-1.422z"/><path d="M5 32a4.968 4.968 0 01-3.536-1.465C.521 29.592 0 28.336 0 27s.521-2.592 1.465-3.535l.119-.102 10.346-7.516 1.176 1.617-10.278 7.468A2.972 2.972 0 002 27c0 .801.312 1.555.879 2.121 1.116 1.117 3.052 1.137 4.189.051l7.468-10.275 1.618 1.176-7.618 10.462A4.969 4.969 0 015 32z"/></svg>