<svg xmlns="http://www.w3.org/2000/svg" width="32" height="32"><path d="M12.001 18C7.038 18 3 13.963 3 9.001 3 4.038 7.038 0 12.001 0 16.963 0 21 4.038 21 9.001 21 13.963 16.963 18 12.001 18zm0-16A7.01 7.01 0 005 9.001C5 12.86 8.141 16 12.001 16A7.007 7.007 0 0019 9.001C19 5.141 15.86 2 12.001 2zM23 18v-2c2.757 0 5-2.243 5-4.999 0-2.757-2.243-5-5-5V4c3.86 0 7 3.141 7 7 0 3.86-3.14 7-7 7zm9 12h-6v-2h3.694l-.742-5.197-3.201-.86.498-1.937 4.494 1.191zm-7.875 2H-.125l1.234-10.422 4.716-1.529.617 1.902-3.498 1.134L2.125 30h19.75l-.819-6.915-3.498-1.134.617-1.902 4.716 1.529z"/></svg>