<svg xmlns="http://www.w3.org/2000/svg" width="32" height="32"><path d="M20.91 21.458l-1.785-.902 2.532-4.898c3.119-3.119 3.119-8.194 0-11.313s-8.195-3.119-11.314 0-3.119 8.194 0 11.313l.114.114 2.405 4.787-1.787.898-2.263-4.502C5.03 13.046 5.069 6.79 8.929 2.93c3.899-3.899 10.244-3.899 14.143 0 3.86 3.86 3.898 10.117.115 14.025l-2.277 4.503zm-1.031.55l.24 1.986-8 .968-.24-1.986 8-.968zm0 3l.24 1.986-8 .968-.24-1.986 8-.968zM15.977 32c-1.654 0-3-1.346-3-3h2c0 .551.449 1 1 1s1-.449 1-1h2c0 1.654-1.346 3-3 3z"/><path d="M12 10h-2c0-3.309 2.691-6 6-6v2c-2.206 0-4 1.794-4 4z"/></svg>