<svg xmlns="http://www.w3.org/2000/svg" width="32" height="32"><path d="M7 24.996H6c-3.421 0-6-2.579-6-6s2.579-6 6-6h1v12zm-2-9.89c-1.786.41-3 1.921-3 3.89s1.214 3.479 3 3.89v-7.78zm21 9.89h-1v-12h1c3.421 0 6 2.579 6 6s-2.579 6-6 6zm1-9.89v7.779c1.786-.41 3-1.921 3-3.89s-1.214-3.478-3-3.889zm0 14.89v-2c.498 0 1-.31 1-1h2c0 1.71-1.29 3-3 3zm-4-2h4v2h-4v-2z"/><path d="M20.526 32.005c-1.654 0-3-1.346-3-3s1.346-3 3-3 3 1.346 3 3-1.345 3-3 3zm0-4a1 1 0 100 2 1 1 0 000-2zM27 11.002h-2c0-4.966-4.037-9.006-9-9.006s-9 4.04-9 9.006H5C5 4.934 9.935-.004 16-.004s11 4.938 11 11.006z"/></svg>