<svg xmlns="http://www.w3.org/2000/svg" width="32" height="32"><path d="M10.311 20.772l1.373 1.453-8.998 8.502-1.373-1.453 8.998-8.502z"/><path d="M13 23.502c-2.206 0-4-1.794-4-4s1.794-4 4-4 4 1.794 4 4-1.794 4-4 4zm0-6c-1.103 0-2 .897-2 2s.897 2 2 2 2-.897 2-2-.897-2-2-2zm10.001-1.001a7.949 7.949 0 01-5.657-2.344 7.949 7.949 0 01-2.345-5.656 7.95 7.95 0 012.345-5.658l2.732-2.76 11.339 11.323-2.758 2.752a7.95 7.95 0 01-5.656 2.343zM20.084 2.917l-1.323 1.336a5.969 5.969 0 00-1.762 4.248c0 1.603.625 3.108 1.759 4.242a5.962 5.962 0 004.243 1.758 5.964 5.964 0 004.243-1.758l1.34-1.337-8.5-8.489z"/><path d="M.853 31.229l2.212-19.353 9.449-5.25.972 1.748-8.551 4.75-1.788 15.647 17.115-3.152 2.801-7.471 1.874.704-3.199 8.529z"/></svg>