<svg xmlns="http://www.w3.org/2000/svg" width="32" height="32"><path d="M29.536 10.95l-8.484-8.485.707-.707C22.892.624 24.399 0 26.001 0s3.109.624 4.242 1.758a6.007 6.007 0 010 8.485l-.707.707zm-5.568-8.396l5.479 5.479a4.009 4.009 0 00-.618-4.86c-1.271-1.272-3.357-1.513-4.861-.619zm-3.095.946l6 9.984-1.713 1.03-6-9.984 1.713-1.03zM.59 31.405l2.979-11.166 1.932.516-2.091 7.84 7.862-2.071.51 1.934zm12.818-4.399l-2.356-6.041-6.041-2.361L17.426 6.075l1.421 1.408L8.575 17.85l4.022 1.572 1.565 4.014 8.34-8.293 1.41 1.418z"/></svg>