<svg xmlns="http://www.w3.org/2000/svg" width="32" height="32"><path d="M24.588 22.97l-1.414-1.414 3.535-3.535-4.244-4.244 1.414-1.414 5.658 5.658zm-9.193 9.192L-.162 16.605 13.98 2.464l5.657 5.656-1.414 1.414-4.243-4.242L2.666 16.605l12.729 12.729 3.535-3.536 1.414 1.414zm10.593-20.164c-.277 0-.556-.02-.833-.059l.279-1.98a4.016 4.016 0 003.396-1.132c.755-.755 1.171-1.759 1.171-2.828s-.416-2.073-1.171-2.828c-1.511-1.512-4.147-1.51-5.658 0a4.03 4.03 0 00-1.131 3.396l-1.98.278a6.038 6.038 0 011.697-5.088C22.892.624 24.398 0 26.002 0s3.11.625 4.242 1.757a6.006 6.006 0 010 8.484 6.036 6.036 0 01-4.256 1.757z"/><path d="M16.822 25.433a6.04 6.04 0 01-4.256-1.756 6.007 6.007 0 010-8.485 6.006 6.006 0 018.484 0 6.035 6.035 0 011.697 5.091l-1.98-.281a4.022 4.022 0 00-1.131-3.396 4.003 4.003 0 00-5.656 0 4.004 4.004 0 000 5.657 4.03 4.03 0 003.396 1.131l.279 1.98a5.972 5.972 0 01-.833.059z"/></svg>