<svg width="0" height="0" class="hidden">
  <symbol xmlns="http://www.w3.org/2000/svg" viewBox="0 0 32 32" id="Bulb">
    <path d="M20.91 21.458l-1.785-.902 2.532-4.898c3.119-3.119 3.119-8.194 0-11.313s-8.195-3.119-11.314 0-3.119 8.194 0 11.313l.114.114 2.405 4.787-1.787.898-2.263-4.502C5.03 13.046 5.069 6.79 8.929 2.93c3.899-3.899 10.244-3.899 14.143 0 3.86 3.86 3.898 10.117.115 14.025l-2.277 4.503zm-1.031.55l.24 1.986-8 .968-.24-1.986 8-.968zm0 3l.24 1.986-8 .968-.24-1.986 8-.968zM15.977 32c-1.654 0-3-1.346-3-3h2c0 .551.449 1 1 1s1-.449 1-1h2c0 1.654-1.346 3-3 3z"></path>
    <path d="M12 10h-2c0-3.309 2.691-6 6-6v2c-2.206 0-4 1.794-4 4z"></path>
  </symbol>
  <symbol aria-hidden="true" data-prefix="fas" data-icon="check-square" xmlns="http://www.w3.org/2000/svg" viewBox="0 0 448 512" id="check-square-solid">
    <path d="M400 480H48c-26.51 0-48-21.49-48-48V80c0-26.51 21.49-48 48-48h352c26.51 0 48 21.49 48 48v352c0 26.51-21.49 48-48 48zm-204.686-98.059l184-184c6.248-6.248 6.248-16.379 0-22.627l-22.627-22.627c-6.248-6.248-16.379-6.249-22.628 0L184 302.745l-70.059-70.059c-6.248-6.248-16.379-6.248-22.628 0l-22.627 22.627c-6.248 6.248-6.248 16.379 0 22.627l104 104c6.249 6.25 16.379 6.25 22.628.001z"></path>
  </symbol>
  <symbol xmlns="http://www.w3.org/2000/svg" viewBox="0 0 32 32" id="ChemicalGlass">
    <path d="M10.041 0h12v2h-12V0zm16.316 32H5.643l-.293-.293c-1.511-1.511-2.346-3.536-2.351-5.704-.004-2.172.825-4.199 2.335-5.71l6.707-6.707V4h2v10.414l-7.293 7.293c-1.131 1.132-1.752 2.655-1.749 4.291A6.052 6.052 0 006.489 30H25.51c2.054-2.355 1.97-6.064-.258-8.293l-7.293-7.293V4h2v9.586l6.707 6.707c3.143 3.144 3.135 8.264-.016 11.414l-.293.293z"></path>
    <path d="M7.215 27.319A4.133 4.133 0 017 25.995a4.01 4.01 0 011.165-2.874l7.003-7 1.414 1.414-7.003 7A2.03 2.03 0 009 25.99c.001.244.037.477.109.69l-1.894.639z"></path>
  </symbol>
  <symbol xmlns="http://www.w3.org/2000/svg" viewBox="0 0 32 32" id="Cup">
    <path d="M16 19c-4.962 0-9-4.038-9-9V0h18v10c0 4.962-4.038 9-9 9zM9 2v8c0 3.86 3.14 7 7 7s7-3.14 7-7V2H9z"></path>
    <path d="M16 15c-2.757 0-5-2.243-5-5V5h2v5c0 1.654 1.346 3 3 3v2zm-1 8.5h2V31h-2v-7.5z"></path>
    <path d="M7 30h18v2H7v-2zm20-20V8c1.654 0 3-1.346 3-3V4h-3V2h5v3c0 2.757-2.243 5-5 5zM5 10c-2.757 0-5-2.243-5-5V2h5v2H2v1c0 1.654 1.346 3 3 3v2zm11 15c-2.206 0-4-1.794-4-4h2c0 1.103.897 2 2 2s2-.897 2-2h2c0 2.206-1.794 4-4 4z"></path>
  </symbol>
  <symbol xmlns="http://www.w3.org/2000/svg" viewBox="0 0 32 32" id="DSLRCamera">
    <path d="M32 29h-8v-2h6V10h-6.566l-3-5h-8.868l-3 5H2v17h6v2H0V8h7.434l3-5h11.132l3 5H32z"></path>
    <path d="M16 29c-4.962 0-9-4.038-9-9s4.038-9 9-9 9 4.038 9 9-4.038 9-9 9zm0-16c-3.86 0-7 3.14-7 7s3.14 7 7 7 7-3.14 7-7-3.14-7-7-7zm10-1h2v2h-2v-2z"></path>
    <path d="M13 20h-2c0-2.757 2.243-5 5-5v2c-1.654 0-3 1.346-3 3z"></path>
  </symbol>
  <symbol aria-hidden="true" data-prefix="fab" data-icon="facebook-f" xmlns="http://www.w3.org/2000/svg" viewBox="0 0 320 512" id="facebook-f-brands">
    <path d="M279.14 288l14.22-92.66h-88.91v-60.13c0-25.35 12.42-50.06 52.24-50.06h40.42V6.26S260.43 0 225.36 0c-73.22 0-121.08 44.38-121.08 124.72v70.62H22.89V288h81.39v224h100.17V288z"></path>
  </symbol>
  <symbol aria-hidden="true" data-prefix="fab" data-icon="glide-g" xmlns="http://www.w3.org/2000/svg" viewBox="0 0 448 512" id="glide-g-brands">
    <path d="M407.1 211.2c-3.5-1.4-11.6-3.8-15.4-3.8-37.1 0-62.2 16.8-93.5 34.5l-.9-.9c7-47.3 23.5-91.9 23.5-140.4C320.8 29.1 282.6 0 212.4 0 97.3 0 39 113.7 39 198.4 39 286.3 90.3 335 177.6 335c12 0 11-1 11 3.8-16.9 128.9-90.8 133.1-90.8 94.6 0-39.2 45-58.6 45.5-61-.3-12.2-47-27.6-58.9-27.6-33.9.1-52.4 51.2-52.4 79.3C32 476 64.8 512 117.5 512c77.4 0 134-77.8 151.4-145.4 15.1-60.5 11.2-63.3 19.7-67.6 32.2-16.2 57.5-27 93.8-27 17.8 0 30.5 3.7 58.9 8.4 2.9 0 6.7-2.9 6.7-5.8 0-8-33.4-60.5-40.9-63.4zm-175.3-84.4c-9.3 44.7-18.6 89.6-27.8 134.3-2.3 10.2-13.3 7.8-22 7.8-38.3 0-49-41.8-49-73.1 0-47 18-109.3 61.8-133.4 7-4.1 14.8-6.7 22.6-6.7 18.6 0 20 13.3 20 28.7-.1 14.3-2.7 28.5-5.6 42.4z"></path>
  </symbol>
  <symbol xmlns="http://www.w3.org/2000/svg" viewBox="0 0 32 32" id="Headset">
    <path d="M7 24.996H6c-3.421 0-6-2.579-6-6s2.579-6 6-6h1v12zm-2-9.89c-1.786.41-3 1.921-3 3.89s1.214 3.479 3 3.89v-7.78zm21 9.89h-1v-12h1c3.421 0 6 2.579 6 6s-2.579 6-6 6zm1-9.89v7.779c1.786-.41 3-1.921 3-3.89s-1.214-3.478-3-3.889zm0 14.89v-2c.498 0 1-.31 1-1h2c0 1.71-1.29 3-3 3zm-4-2h4v2h-4v-2z"></path>
    <path d="M20.526 32.005c-1.654 0-3-1.346-3-3s1.346-3 3-3 3 1.346 3 3-1.345 3-3 3zm0-4a1 1 0 100 2 1 1 0 000-2zM27 11.002h-2c0-4.966-4.037-9.006-9-9.006s-9 4.04-9 9.006H5C5 4.934 9.935-.004 16-.004s11 4.938 11 11.006z"></path>
  </symbol>
  <symbol xmlns="http://www.w3.org/2000/svg" viewBox="0 0 32 32" id="Heart">
    <path d="M16.32 30.733L2.233 17.657A9.61 9.61 0 010 11.5C0 6.262 4.262 2 9.5 2c2.442 0 4.756.918 6.5 2.55A9.492 9.492 0 0122.5 2c5.238 0 9.5 4.262 9.5 9.5a9.61 9.61 0 01-2.233 6.157l-.095.099-11 9.984-1.344-1.48 10.947-9.937A7.715 7.715 0 0030 11.5C30 7.364 26.636 4 22.5 4a7.474 7.474 0 00-5.735 2.645L16 7.551l-.765-.907A7.477 7.477 0 009.5 4C5.364 4 2 7.364 2 11.5c0 1.735.629 3.49 1.728 4.827l13.952 12.94-1.36 1.466z"></path>
    <path d="M15.208 24.247l-10.07-9.361A5.646 5.646 0 014 11.5C4 8.467 6.467 6 9.5 6v2C7.57 8 6 9.57 6 11.5c0 .742.249 1.507.684 2.114l9.885 9.167-1.361 1.466zm4.233-14.239l-1.752-.965a5.458 5.458 0 013.289-2.626 5.467 5.467 0 014.183.464l-.965 1.752a3.479 3.479 0 00-2.662-.295 3.475 3.475 0 00-2.093 1.67z"></path>
  </symbol>
  <symbol aria-hidden="true" data-prefix="far" data-icon="heart" xmlns="http://www.w3.org/2000/svg" viewBox="0 0 512 512" id="heart-regular">
    <path d="M458.4 64.3C400.6 15.7 311.3 23 256 79.3 200.7 23 111.4 15.6 53.6 64.3-21.6 127.6-10.6 230.8 43 285.5l175.4 178.7c10 10.2 23.4 15.9 37.6 15.9 14.3 0 27.6-5.6 37.6-15.8L469 285.6c53.5-54.7 64.7-157.9-10.6-221.3zm-23.6 187.5L259.4 430.5c-2.4 2.4-4.4 2.4-6.8 0L77.2 251.8c-36.5-37.2-43.9-107.6 7.3-150.7 38.9-32.7 98.9-27.8 136.5 10.5l35 35.7 35-35.7c37.8-38.5 97.8-43.2 136.5-10.6 51.1 43.1 43.5 113.9 7.3 150.8z"></path>
  </symbol>
  <symbol xmlns="http://www.w3.org/2000/svg" viewBox="0 0 32 32" id="House">
    <path d="M28.002 32h-24V19h2v11h20V19h2zm2.269-13.316L16 3.462 1.729 18.684.271 17.316 16 .538l15.729 16.778z"></path>
    <path d="M20 28h-2v-7h-4v7h-2v-9h8zm-3.998-11c-2.206 0-4-1.794-4-4s1.794-4 4-4 4 1.794 4 4-1.794 4-4 4zm0-6c-1.103 0-2 .897-2 2s.897 2 2 2 2-.897 2-2-.898-2-2-2z"></path>
  </symbol>
  <symbol xmlns="http://www.w3.org/2000/svg" viewBox="0 0 32 32" id="Layers">
    <path d="M16 18.886L.891 10.75 16 2.614l15.109 8.136L16 18.886zM5.109 10.75L16 16.614l10.891-5.864L16 4.886 5.109 10.75z"></path>
    <path d="M16 23.734L1.56 16.648l.88-1.796L16 21.508l13.56-6.656.88 1.796z"></path>
    <path d="M16 28.863L1.56 21.777l.88-1.797L16 26.637l13.56-6.657.88 1.797z"></path>
  </symbol>
  <symbol xmlns="http://www.w3.org/2000/svg" viewBox="0 0 32 32" id="Like">
    <path d="M10.48 14H8v-2h1.52L13 7.649V4c0-2.206 1.794-4 4-4s4 1.794 4 4h-2c0-1.103-.897-2-2-2s-2 .897-2 2v4.351L10.48 14z"></path>
    <path d="M27.812 32l-11.087-.039L9.86 30H8v-2l2.275.039L17.14 30h9.108l3.524-14.19L19 13.867V4h2v8.195l11.228 2.026zM6 30H0V12h6v18zm-4-2h2V14H2v14z"></path>
  </symbol>
  <symbol xmlns="http://www.w3.org/2000/svg" viewBox="0 0 32 32" id="Linked">
    <path d="M12.806 19.192c-3.507-3.51-3.507-9.22 0-12.729l1.414 1.414c-2.728 2.729-2.728 7.17 0 9.9l-1.414 1.415z"></path>
    <path d="M25.534 19.192l-1.414-1.414 3.829-3.828c2.729-2.731 2.729-7.172 0-9.9-2.729-2.728-7.17-2.729-9.899 0l-3.829 3.828-1.414-1.414 3.829-3.828c3.508-3.509 9.218-3.509 12.728 0 3.509 3.507 3.509 9.218 0 12.729l-3.83 3.827z"></path>
    <path d="M19.193 25.534l-1.414-1.414c2.729-2.729 2.729-7.169 0-9.9l1.414-1.414c3.509 3.51 3.509 9.221 0 12.728z"></path>
    <path d="M9 31.996a8.97 8.97 0 01-6.364-2.632c-3.509-3.509-3.509-9.219 0-12.729l3.829-3.83L7.88 14.22l-3.829 3.83c-2.729 2.729-2.729 7.171 0 9.9s7.17 2.729 9.899 0l3.829-3.83 1.414 1.414-3.829 3.83A8.969 8.969 0 019 31.996z"></path>
  </symbol>
  <symbol aria-hidden="true" data-prefix="fas" data-icon="long-arrow-alt-right" xmlns="http://www.w3.org/2000/svg" viewBox="0 0 448 512" id="long-arrow-alt-right-solid">
    <path d="M313.941 216H12c-6.627 0-12 5.373-12 12v56c0 6.627 5.373 12 12 12h301.941v46.059c0 21.382 25.851 32.09 40.971 16.971l86.059-86.059c9.373-9.373 9.373-24.569 0-33.941l-86.059-86.059c-15.119-15.119-40.971-4.411-40.971 16.971V216z"></path>
  </symbol>
  <symbol aria-hidden="true" data-prefix="fas" data-icon="long-arrow-alt-up" xmlns="http://www.w3.org/2000/svg" viewBox="0 0 256 512" id="long-arrow-alt-up-solid">
    <path d="M88 166.059V468c0 6.627 5.373 12 12 12h56c6.627 0 12-5.373 12-12V166.059h46.059c21.382 0 32.09-25.851 16.971-40.971l-86.059-86.059c-9.373-9.373-24.569-9.373-33.941 0l-86.059 86.059c-15.119 15.119-4.411 40.971 16.971 40.971H88z"></path>
  </symbol>
  <symbol xmlns="http://www.w3.org/2000/svg" viewBox="0 0 32 32" id="Mail">
    <path d="M32 29H0V3h32v26zM2 27h28V5H2v22z"></path>
    <path d="M9.144 12.486l1.715 1.029-6.001 9.999-1.715-1.029 6.001-9.999z"></path>
    <path d="M16 17.118L3.553 10.895l.894-1.79L16 14.882l11.553-5.777.894 1.79z"></path>
    <path d="M22.857 12.486l6 10-1.715 1.029-6-10 1.715-1.029z"></path>
  </symbol>
  <symbol aria-hidden="true" data-prefix="fas" data-icon="map-marker-alt" xmlns="http://www.w3.org/2000/svg" viewBox="0 0 384 512" id="map-marker-alt-solid">
    <path d="M172.268 501.67C26.97 291.031 0 269.413 0 192 0 85.961 85.961 0 192 0s192 85.961 192 192c0 77.413-26.97 99.031-172.268 309.67-9.535 13.774-29.93 13.773-39.464 0zM192 272c44.183 0 80-35.817 80-80s-35.817-80-80-80-80 35.817-80 80 35.817 80 80 80z"></path>
  </symbol>
  <symbol xmlns="http://www.w3.org/2000/svg" viewBox="0 0 32 32" id="Medal">
    <path d="M16 32c-4.411 0-8-3.589-8-8s3.589-8 8-8 8 3.589 8 8-3.589 8-8 8zm0-14c-3.309 0-6 2.691-6 6s2.691 6 6 6 6-2.691 6-6-2.691-6-6-6z"></path>
    <path d="M14 24h-2c0-2.206 1.794-4 4-4v2c-1.103 0-2 .897-2 2zm3.316-10.051l-.632-1.898 8.162-2.72L24 5V2H8l-.02 3.196-.826 4.135 8.162 2.72-.632 1.898-9.838-3.28L6 4.901V0h20v4.901l1.154 5.768z"></path>
    <path d="M12 4h2v4h-2V4zm6 0h2v4h-2V4z"></path>
  </symbol>
  <symbol xmlns="http://www.w3.org/2000/svg" viewBox="0 0 32 32" id="Megaphone">
    <path d="M15 20h-5v-2h3v-8H8V8h7z"></path>
    <path d="M32 26.414l-18.333-6.471.666-1.886L30 23.586V4.414L14.333 9.943l-.666-1.886L32 1.586z"></path>
    <path d="M26.654 7.717l.693 1.876-8.989 3.322-.693-1.876 8.989-3.322zM6 20H0V8h6v12zm-4-2h2v-8H2v8zm6 12c-2.206 0-4-1.794-4-4v-4h2v4c0 1.103.897 2 2 2s2-.897 2-2v-4h4v2h-2v2c0 2.206-1.794 4-4 4z"></path>
  </symbol>
  <symbol xmlns="http://www.w3.org/2000/svg" viewBox="0 0 32 32" id="Pencil">
    <path d="M29.536 10.95l-8.484-8.485.707-.707C22.892.624 24.399 0 26.001 0s3.109.624 4.242 1.758a6.007 6.007 0 010 8.485l-.707.707zm-5.568-8.396l5.479 5.479a4.009 4.009 0 00-.618-4.86c-1.271-1.272-3.357-1.513-4.861-.619zm-3.095.946l6 9.984-1.713 1.03-6-9.984 1.713-1.03zM.59 31.405l2.979-11.166 1.932.516-2.091 7.84 7.862-2.071.51 1.934zm12.818-4.399l-2.356-6.041-6.041-2.361L17.426 6.075l1.421 1.408L8.575 17.85l4.022 1.572 1.565 4.014 8.34-8.293 1.41 1.418z"></path>
  </symbol>
  <symbol xmlns="http://www.w3.org/2000/svg" viewBox="0 0 32 32" id="Phone">
    <path d="M26 8H6V0h20v8zM8 6h16V2H8v4zm18 26H6V9.952h2V30h16V9.952h2z"></path>
    <path d="M15 26h2v2h-2v-2zM14 3h4v2h-4V3zM7 22h18v2H7v-2z"></path>
  </symbol>
  <symbol xmlns="http://www.w3.org/2000/svg" viewBox="0 0 32 32" id="Pen">
    <path d="M10.311 20.772l1.373 1.453-8.998 8.502-1.373-1.453 8.998-8.502z"></path>
    <path d="M13 23.502c-2.206 0-4-1.794-4-4s1.794-4 4-4 4 1.794 4 4-1.794 4-4 4zm0-6c-1.103 0-2 .897-2 2s.897 2 2 2 2-.897 2-2-.897-2-2-2zm10.001-1.001a7.949 7.949 0 01-5.657-2.344 7.949 7.949 0 01-2.345-5.656 7.95 7.95 0 012.345-5.658l2.732-2.76 11.339 11.323-2.758 2.752a7.95 7.95 0 01-5.656 2.343zM20.084 2.917l-1.323 1.336a5.969 5.969 0 00-1.762 4.248c0 1.603.625 3.108 1.759 4.242a5.962 5.962 0 004.243 1.758 5.964 5.964 0 004.243-1.758l1.34-1.337-8.5-8.489z"></path>
    <path d="M.853 31.229l2.212-19.353 9.449-5.25.972 1.748-8.551 4.75-1.788 15.647 17.115-3.152 2.801-7.471 1.874.704-3.199 8.529z"></path>
  </symbol>
  <symbol aria-hidden="true" data-prefix="fab" data-icon="pinterest-p" xmlns="http://www.w3.org/2000/svg" viewBox="0 0 384 512" id="pinterest-p-brands">
    <path d="M204 6.5C101.4 6.5 0 74.9 0 185.6 0 256 39.6 296 63.6 296c9.9 0 15.6-27.6 15.6-35.4 0-9.3-23.7-29.1-23.7-67.8 0-80.4 61.2-137.4 140.4-137.4 68.1 0 118.5 38.7 118.5 109.8 0 53.1-21.3 152.7-90.3 152.7-24.9 0-46.2-18-46.2-43.8 0-37.8 26.4-74.4 26.4-113.4 0-66.2-93.9-54.2-93.9 25.8 0 16.8 2.1 35.4 9.6 50.7-13.8 59.4-42 147.9-42 209.1 0 18.9 2.7 37.5 4.5 56.4 3.4 3.8 1.7 3.4 6.9 1.5 50.4-69 48.6-82.5 71.4-172.8 12.3 23.4 44.1 36 69.3 36 106.2 0 153.9-103.5 153.9-196.8C384 71.3 298.2 6.5 204 6.5z"></path>
  </symbol>
  <symbol xmlns="http://www.w3.org/2000/svg" viewBox="0 0 32 32" id="Play">
    <path d="M16 32C7.178 32 0 24.822 0 16S7.178 0 16 0s16 7.178 16 16-7.178 16-16 16zm0-30C8.28 2 2 8.28 2 16s6.28 14 14 14 14-6.28 14-14S23.72 2 16 2z"></path>
    <path d="M12 22.805V14h2v5.195l5.032-3.144-7.518-4.177.972-1.748 10.482 5.823z"></path>
  </symbol>
  <symbol xmlns="http://www.w3.org/2000/svg" viewBox="0 0 32 32" id="Puzzle">
    <path d="M24.588 22.97l-1.414-1.414 3.535-3.535-4.244-4.244 1.414-1.414 5.658 5.658zm-9.193 9.192L-.162 16.605 13.98 2.464l5.657 5.656-1.414 1.414-4.243-4.242L2.666 16.605l12.729 12.729 3.535-3.536 1.414 1.414zm10.593-20.164c-.277 0-.556-.02-.833-.059l.279-1.98a4.016 4.016 0 003.396-1.132c.755-.755 1.171-1.759 1.171-2.828s-.416-2.073-1.171-2.828c-1.511-1.512-4.147-1.51-5.658 0a4.03 4.03 0 00-1.131 3.396l-1.98.278a6.038 6.038 0 011.697-5.088C22.892.624 24.398 0 26.002 0s3.11.625 4.242 1.757a6.006 6.006 0 010 8.484 6.036 6.036 0 01-4.256 1.757z"></path>
    <path d="M16.822 25.433a6.04 6.04 0 01-4.256-1.756 6.007 6.007 0 010-8.485 6.006 6.006 0 018.484 0 6.035 6.035 0 011.697 5.091l-1.98-.281a4.022 4.022 0 00-1.131-3.396 4.003 4.003 0 00-5.656 0 4.004 4.004 0 000 5.657 4.03 4.03 0 003.396 1.131l.279 1.98a5.972 5.972 0 01-.833.059z"></path>
  </symbol>
  <symbol aria-hidden="true" data-prefix="fas" data-icon="quote-right" xmlns="http://www.w3.org/2000/svg" viewBox="0 0 512 512" id="quote-right-solid">
    <path d="M464 32H336c-26.5 0-48 21.5-48 48v128c0 26.5 21.5 48 48 48h80v64c0 35.3-28.7 64-64 64h-8c-13.3 0-24 10.7-24 24v48c0 13.3 10.7 24 24 24h8c88.4 0 160-71.6 160-160V80c0-26.5-21.5-48-48-48zm-288 0H48C21.5 32 0 53.5 0 80v128c0 26.5 21.5 48 48 48h80v64c0 35.3-28.7 64-64 64h-8c-13.3 0-24 10.7-24 24v48c0 13.3 10.7 24 24 24h8c88.4 0 160-71.6 160-160V80c0-26.5-21.5-48-48-48z"></path>
  </symbol>
  <symbol xmlns="http://www.w3.org/2000/svg" viewBox="0 0 32 32" id="Search">
    <path d="M13 26C5.832 26 0 20.168 0 13S5.832 0 13 0s13 5.832 13 13-5.832 13-13 13zm0-24C6.935 2 2 6.935 2 13s4.935 11 11 11 11-4.935 11-11S19.065 2 13 2zm16.001 30a2.988 2.988 0 01-2.121-.877l-5.576-5.405 1.393-1.436 5.587 5.416c.4.401 1.036.4 1.425.011.187-.188.291-.44.291-.709s-.104-.519-.292-.707l-5.426-5.598 1.436-1.392 5.415 5.586c.555.555.867 1.309.867 2.111s-.312 1.556-.877 2.122a2.989 2.989 0 01-2.122.878z"></path>
    <path d="M7.348 18.654c-3.119-3.118-3.119-8.192 0-11.313l1.414 1.414a6.006 6.006 0 000 8.484l-1.414 1.415z"></path>
  </symbol>
  <symbol xmlns="http://www.w3.org/2000/svg" viewBox="0 0 32 32" id="Shield">
    <path d="M2.999 9h2v13h-2V9zm24 0h2v13h-2V9zm-9.75 23h-2.5L5.38 26.992C3.161 25.664 2.999 24.212 2.999 22h2c0 2.028.129 2.538 1.499 3.33l.005.003L15.249 30h1.5l8.751-4.67c1.37-.792 1.499-1.302 1.499-3.33h2c0 2.212-.162 3.664-2.381 4.993l-.148.087L17.249 32zm-8.25-16h14v2h-14v-2zm0 4h14v2h-14v-2zm0-8h7v2h-7v-2zm20-5h-7a7.003 7.003 0 01-6-3.397 7.003 7.003 0 01-6 3.397h-7V5h7c2.757 0 5-2.243 5-5h2c0 2.757 2.243 5 5 5h7v2z"></path>
  </symbol>
  <symbol xmlns="http://www.w3.org/2000/svg" viewBox="0 0 32 32" id="Starship">
    <path d="M23.514 16.971L22.1 15.557 30 7.658V2h-5.658l-7.899 7.9-1.414-1.414L23.514 0H32v8.486zm-5.373 11.855L3.174 13.859l10.269-3.651.67 1.885-7.287 2.591 10.49 10.49 2.591-7.286 1.885.67zM.029 31.971l5.07-11.399 1.828.813-2.956 6.644 6.645-2.955.813 1.828z"></path>
    <path d="M16.276 14.287l1.437 1.391-5.549 5.735-1.437-1.391 5.548-5.735z"></path>
  </symbol>
  <symbol xmlns="http://www.w3.org/2000/svg" viewBox="0 0 32 32" id="Starship2">
    <path d="M21 32H11V10h2v20h6V10h2zm8-4h-6v-2h4v-3.678l-4.815-7.798 1.701-1.05L29 21.754zM9 28H3v-6.246l5.114-8.28 1.701 1.05L5 22.322V26h4z"></path>
    <path d="M15 14h2v14h-2V14zm4.219-6.375L16 3.601l-3.219 4.024-1.562-1.25L16 .399l4.781 5.976z"></path>
  </symbol>
  <symbol xmlns="http://www.w3.org/2000/svg" viewBox="0 0 32 32" id="TeaMug">
    <path d="M12.994 24.025c-7.168 0-13-6-13-13.374V4.025h26v6.626c0 7.375-5.831 13.374-13 13.374zm-11-18v4.626c0 6.271 4.935 11.374 11 11.374s11-5.103 11-11.374V6.025h-22z"></path>
    <path d="M13.006 20.025c-4.962 0-9-4.205-9-9.374V9.025h2v1.626c0 4.066 3.14 7.374 7 7.374v2zm16-6h-1.038v-2h1.038c.551 0 1-.449 1-1v-2c0-.551-.449-1-1-1h-1.038v-2h1.038c1.654 0 3 1.346 3 3v2.025a3.004 3.004 0 01-3 2.975zM4.994 25.975h16v2h-16v-2z"></path>
  </symbol>
  <symbol aria-hidden="true" data-prefix="fab" data-icon="twitter" xmlns="http://www.w3.org/2000/svg" viewBox="0 0 512 512" id="twitter-brands">
    <path d="M459.37 151.716c.325 4.548.325 9.097.325 13.645 0 138.72-105.583 298.558-298.558 298.558-59.452 0-114.68-17.219-161.137-47.106 8.447.974 16.568 1.299 25.34 1.299 49.055 0 94.213-16.568 130.274-44.832-46.132-.975-84.792-31.188-98.112-72.772 6.498.974 12.995 1.624 19.818 1.624 9.421 0 18.843-1.3 27.614-3.573-48.081-9.747-84.143-51.98-84.143-102.985v-1.299c13.969 7.797 30.214 12.67 47.431 13.319-28.264-18.843-46.781-51.005-46.781-87.391 0-19.492 5.197-37.36 14.294-52.954 51.655 63.675 129.3 105.258 216.365 109.807-1.624-7.797-2.599-15.918-2.599-24.04 0-57.828 46.782-104.934 104.934-104.934 30.213 0 57.502 12.67 76.67 33.137 23.715-4.548 46.456-13.32 66.599-25.34-7.798 24.366-24.366 44.833-46.132 57.827 21.117-2.273 41.584-8.122 60.426-16.243-14.292 20.791-32.161 39.308-52.628 54.253z"></path>
  </symbol>
  <symbol xmlns="http://www.w3.org/2000/svg" viewBox="0 0 32 32" id="Time">
    <path d="M22.376 23.431L15 16.272V5.85h2v9.577l6.769 6.568zm-6.298 8.409A16.02 16.02 0 014.74 27.163l1.414-1.414c4.69 4.689 12.1 5.439 17.619 1.783l1.105 1.667a15.911 15.911 0 01-8.8 2.641zm13.323-7.166l-1.668-1.104c3.658-5.52 2.909-12.929-1.781-17.62l1.414-1.414c5.361 5.36 6.216 13.83 2.035 20.138z"></path>
    <path d="M32.052 15.863h-2c0-6.628-4.754-12.403-11.305-13.733l.398-1.96c7.479 1.518 12.907 8.118 12.907 15.693zM15.947 31.85c-8.822 0-16-7.178-16-16 0-7.58 5.384-14.173 12.801-15.679l.397 1.96C6.657 3.448 1.947 9.217 1.947 15.85c0 7.72 6.28 14 14 14v2z"></path>
  </symbol>
  <symbol xmlns="http://www.w3.org/2000/svg" viewBox="0 0 32 32" id="Umbrella">
    <path d="M8.454 15.34l-1.886-.666A10.024 10.024 0 0116 8v2a8.02 8.02 0 00-7.546 5.34zM15 0h2v2h-2V0zm0 21h2v8h-2v-8zm-1 11c-1.654 0-3-1.346-3-3h2a1.001 1.001 0 002 0h2c0 1.654-1.345 3-3 3z"></path>
    <path d="M30 19H2v-1C2 10.28 8.28 4 16 4c7.719 0 14 6.28 14 14v1zM4.041 17h23.918C27.449 10.85 22.28 6 16 6S4.551 10.85 4.041 17z"></path>
  </symbol>
  <symbol xmlns="http://www.w3.org/2000/svg" viewBox="0 0 32 32" id="Tools">
    <path d="M4 7a2.978 2.978 0 01-2.122-.879L.464 4.707 4.706.465 6.12 1.879c.568.566.88 1.32.88 2.123 0 .801-.313 1.555-.881 2.121A2.976 2.976 0 014 7zm-.708-2.293c.189.189.44.293.708.293a.992.992 0 00.706-.292c.19-.19.294-.44.294-.706a.992.992 0 00-.293-.708v-.001L3.292 4.707z"></path>
    <path d="M6.107 4.695l6.328 6.103-1.388 1.44-6.328-6.103 1.388-1.44zm15.877 15.651l5.464 5.464-1.414 1.414-5.464-5.464 1.414-1.414z"></path>
    <path d="M26.742 31.514a4.97 4.97 0 01-3.526-1.457l-6.084-6.084 1.414-1.414 6.084 6.084a3 3 0 004.236-.007 3.009 3.009 0 00-.006-4.249l-6.072-6.071 1.414-1.414 6.072 6.071c1.953 1.955 1.955 5.129.006 7.078a4.997 4.997 0 01-3.538 1.463zm-3.226-16.028a6.958 6.958 0 01-4.95-2.052 6.947 6.947 0 01-2.051-4.948c0-1.871.728-3.629 2.051-4.951l1.828-1.828 1.414 1.414-1.828 1.828a4.964 4.964 0 00-1.465 3.536c0 1.335.521 2.591 1.465 3.535s2.2 1.466 3.535 1.466 2.59-.521 3.535-1.466l1.828-1.828 1.414 1.414-1.828 1.828a6.943 6.943 0 01-4.948 2.052z"></path>
    <path d="M30.293 11.606l-2.121-2.121-.707.707a3.97 3.97 0 01-2.828 1.172h-.001c-1.068-.001-2.073-.417-2.828-1.172s-1.171-1.759-1.171-2.828a3.98 3.98 0 011.171-2.829l.708-.707-2.121-2.121L21.809.293l3.535 3.535-2.121 2.121c-.378.379-.586.881-.586 1.415s.208 1.036.586 1.413a1.98 1.98 0 001.414.587c.534 0 1.036-.208 1.414-.586l2.122-2.121 3.535 3.535-1.415 1.414zM4.031 25.969h2v2h-2v-2zm10.537-13.087l3.967 3.922-1.406 1.422-3.967-3.922 1.406-1.422z"></path>
    <path d="M5 32a4.968 4.968 0 01-3.536-1.465C.521 29.592 0 28.336 0 27s.521-2.592 1.465-3.535l.119-.102 10.346-7.516 1.176 1.617-10.278 7.468A2.972 2.972 0 002 27c0 .801.312 1.555.879 2.121 1.116 1.117 3.052 1.137 4.189.051l7.468-10.275 1.618 1.176-7.618 10.462A4.969 4.969 0 015 32z"></path>
  </symbol>
  <symbol xmlns="http://www.w3.org/2000/svg" viewBox="0 0 32 32" id="Users">
    <path d="M12.001 18C7.038 18 3 13.963 3 9.001 3 4.038 7.038 0 12.001 0 16.963 0 21 4.038 21 9.001 21 13.963 16.963 18 12.001 18zm0-16A7.01 7.01 0 005 9.001C5 12.86 8.141 16 12.001 16A7.007 7.007 0 0019 9.001C19 5.141 15.86 2 12.001 2zM23 18v-2c2.757 0 5-2.243 5-4.999 0-2.757-2.243-5-5-5V4c3.86 0 7 3.141 7 7 0 3.86-3.14 7-7 7zm9 12h-6v-2h3.694l-.742-5.197-3.201-.86.498-1.937 4.494 1.191zm-7.875 2H-.125l1.234-10.422 4.716-1.529.617 1.902-3.498 1.134L2.125 30h19.75l-.819-6.915-3.498-1.134.617-1.902 4.716 1.529z"></path>
  </symbol>
  <symbol xmlns="http://www.w3.org/2000/svg" viewBox="0 0 32 32" id="Video">
    <path d="M20 27H0V11h13.966v2H2v12h16V8.847L6.853 6.986l.329-1.972L20 7.153z"></path>
    <path d="M4 15h9.966v2H4v-2zm28 12.281l-9.242-2.311.484-1.94L30 24.719V13.281l-6.758 1.689-.484-1.94L32 10.719z"></path>
  </symbol>
   <symbol xmlns="http://www.w3.org/2000/svg" viewBox="0 0 32 32" id="Pause">
     <path d="M16 32c-8.822 0-16-7.178-16-16s7.178-16 16-16 16 7.178 16 16-7.178 16-16 16zM16 2c-7.72 0-14 6.28-14 14s6.28 14 14 14 14-6.28 14-14-6.28-14-14-14z"/>
      <path d="M13 11h2v10h-2v-10z"/>
      <path d="M17 11h2v10h-2v-10z"/>
    </symbol>
    <symbol xmlns="http://www.w3.org/2000/svg" viewBox="0 0 448 512" id="MobMenu">
      <path d="M16 132h416c8.837 0 16-7.163 16-16V76c0-8.837-7.163-16-16-16H16C7.163 60 0 67.163 0 76v40c0 8.837 7.163 16 16 16zm0 160h416c8.837 0 16-7.163 16-16v-40c0-8.837-7.163-16-16-16H16c-8.837 0-16 7.163-16 16v40c0 8.837 7.163 16 16 16zm0 160h416c8.837 0 16-7.163 16-16v-40c0-8.837-7.163-16-16-16H16c-8.837 0-16 7.163-16 16v40c0 8.837 7.163 16 16 16z">
      </path>
    </symbol>
    <symbol aria-hidden="true" focusable="false" data-prefix="fas" data-icon="times" xmlns="http://www.w3.org/2000/svg" viewBox="0 0 352 512" id="Close-times">
      <path d="M242.72 256l100.07-100.07c12.28-12.28 12.28-32.19 0-44.48l-22.24-22.24c-12.28-12.28-32.19-12.28-44.48 0L176 189.28 75.93 89.21c-12.28-12.28-32.19-12.28-44.48 0L9.21 111.45c-12.28 12.28-12.28 32.19 0 44.48L109.28 256 9.21 356.07c-12.28 12.28-12.28 32.19 0 44.48l22.24 22.24c12.28 12.28 32.2 12.28 44.48 0L176 322.72l100.07 100.07c12.28 12.28 32.2 12.28 44.48 0l22.24-22.24c12.28-12.28 12.28-32.19 0-44.48L242.72 256z">
      </path>
      </symbol>
</svg>