<svg xmlns="http://www.w3.org/2000/svg" width="32" height="32"><path d="M22.376 23.431L15 16.272V5.85h2v9.577l6.769 6.568zm-6.298 8.409A16.02 16.02 0 014.74 27.163l1.414-1.414c4.69 4.689 12.1 5.439 17.619 1.783l1.105 1.667a15.911 15.911 0 01-8.8 2.641zm13.323-7.166l-1.668-1.104c3.658-5.52 2.909-12.929-1.781-17.62l1.414-1.414c5.361 5.36 6.216 13.83 2.035 20.138z"/><path d="M32.052 15.863h-2c0-6.628-4.754-12.403-11.305-13.733l.398-1.96c7.479 1.518 12.907 8.118 12.907 15.693zM15.947 31.85c-8.822 0-16-7.178-16-16 0-7.58 5.384-14.173 12.801-15.679l.397 1.96C6.657 3.448 1.947 9.217 1.947 15.85c0 7.72 6.28 14 14 14v2z"/></svg>